<svg width="20" height="20" viewBox="0 0 20 20" fill="none" xmlns="http://www.w3.org/2000/svg">
<path fill-rule="evenodd" clip-rule="evenodd" d="M9.29445 0.00981677C9.21908 0.0186612 8.99004 0.0440206 8.78547 0.06621C7.49373 0.206313 6.06328 0.690801 4.909 1.37922C3.43994 2.25533 2.24592 3.44883 1.36943 4.91724C0.686343 6.06158 0.232651 7.39142 0.0475403 8.79202C-0.0158467 9.27154 -0.0158467 10.7389 0.0475403 11.2184C0.232651 12.619 0.686343 13.9488 1.36943 15.0932C2.24592 16.5616 3.43994 17.7551 4.909 18.6312C6.05384 19.314 7.38426 19.7675 8.78547 19.9525C9.2652 20.0158 10.7332 20.0158 11.2129 19.9525C13.6508 19.6305 15.7173 18.5602 17.4038 16.7461C18.3368 15.7424 19.0668 14.4941 19.5147 13.136C19.8679 12.0654 20 11.213 20 10.0052C20 9.11167 19.9623 8.71692 19.8018 7.93105C19.2516 5.23658 17.5197 2.82866 15.0894 1.37922C13.9562 0.703403 12.6049 0.240321 11.252 0.0641359C10.9087 0.0194439 9.53719 -0.0186342 9.29445 0.00981677ZM9.40176 5.25392C9.3677 5.28801 6.4239 5.09668 6.36909 5.05684C6.34427 5.0388 6.69989 4.19407 6.90195 3.79122C7.54995 2.49906 8.40542 1.59223 9.25314 1.29884L9.39233 1.25066L9.40247 3.24689C9.40807 4.34478 9.40775 5.24797 9.40176 5.25392ZM11.0601 1.43561C11.7828 1.79996 12.533 2.66777 13.0964 3.79122C13.3399 4.27668 13.6512 5.03727 13.6194 5.06905C13.5886 5.09977 11.9822 5.2196 11.2618 5.24492L10.5865 5.26867V3.25558V1.24248L10.7371 1.29559C10.8199 1.32482 10.9653 1.38783 11.0601 1.43561ZM6.7262 1.83581C6.71081 1.86273 6.61544 1.9992 6.51423 2.1391C6.08563 2.73164 5.6395 3.60611 5.32131 4.47741C5.23627 4.71018 5.15307 4.87854 5.123 4.87854C4.95821 4.87854 3.20683 4.48116 3.15844 4.43279C3.12993 4.40434 3.54436 3.94036 3.89884 3.6038C4.55867 2.97741 5.26438 2.48795 6.10255 2.07543C6.70646 1.7782 6.774 1.75222 6.7262 1.83581ZM13.8958 2.07543C14.7337 2.48783 15.434 2.97346 16.1033 3.6063C16.4744 3.95723 16.9006 4.45381 16.8614 4.48977C16.7971 4.54891 14.8701 4.95184 14.839 4.91266C14.8326 4.90468 14.7606 4.71319 14.679 4.48719C14.3653 3.61863 13.9168 2.73728 13.4841 2.1391C13.2599 1.82912 13.2351 1.78689 13.2769 1.78689C13.2949 1.78689 13.5734 1.91674 13.8958 2.07543ZM2.7852 5.56042C3.15714 5.67168 4.18621 5.91189 4.57135 5.97737L4.84013 6.02304L4.81961 6.16502C4.8083 6.24309 4.75454 6.5447 4.70016 6.83528C4.58055 7.47431 4.48925 8.24687 4.4539 8.91921L4.42766 9.41818H2.80885H1.18999V9.27643C1.18999 8.83589 1.41265 7.77091 1.64654 7.09279C1.84524 6.51672 2.35625 5.46556 2.43761 5.46556C2.45445 5.46556 2.61086 5.50826 2.7852 5.56042ZM17.9662 6.17938C18.2492 6.76624 18.442 7.29903 18.5872 7.89505C18.6943 8.33481 18.8084 9.04726 18.8084 9.27643V9.41818H17.1895H15.5707L15.5445 8.91921C15.5093 8.2493 15.4181 7.47627 15.2987 6.83528C15.2446 6.5447 15.1909 6.25166 15.1793 6.18404L15.1584 6.06115L15.4467 6.01423C15.8318 5.9515 16.8678 5.72205 17.2814 5.60789C17.6784 5.49828 17.6105 5.44161 17.9662 6.17938ZM6.63818 6.26622C7.12073 6.31897 7.78992 6.36554 8.95187 6.42722L9.4119 6.45164V7.93493V9.41818H7.51303H5.61416V9.20923C5.61416 8.40924 5.94653 6.20912 6.06739 6.20912C6.09393 6.20912 6.35081 6.23483 6.63818 6.26622ZM13.9927 6.26352C13.9927 6.27189 14.0272 6.44632 14.0693 6.65111C14.2312 7.43729 14.3842 8.68064 14.3842 9.20923V9.41818H12.4853H10.5865V7.93606V6.45395L11.2227 6.42769C11.9775 6.39654 13.5747 6.28649 13.5979 6.26403C13.6189 6.24376 13.9927 6.24329 13.9927 6.26352ZM4.47151 11.2683C4.52359 12.0088 4.63243 12.8265 4.75803 13.4205C4.84542 13.8337 4.83798 13.9187 4.71453 13.9187C4.57374 13.9187 3.28415 14.1911 2.85595 14.3112C2.62828 14.3751 2.41498 14.4274 2.3819 14.4274C2.29588 14.4274 1.82202 13.4386 1.62724 12.8526C1.38889 12.1357 1.18999 11.172 1.18999 10.734V10.5922H2.80701H4.42398L4.47151 11.2683ZM9.4119 12.0598V13.5273L8.95187 13.5275C8.38918 13.5277 7.39757 13.5866 6.617 13.6661C6.29647 13.6987 6.02964 13.7205 6.02412 13.7144C6.01856 13.7084 5.96814 13.4797 5.91203 13.2063C5.78933 12.6084 5.66823 11.6806 5.63088 11.0521L5.60352 10.5922H7.50771H9.4119V12.0598ZM14.3675 11.0521C14.3301 11.6802 14.207 12.6252 14.0857 13.2143C14.0304 13.4833 13.9788 13.7136 13.9712 13.726C13.9635 13.7384 13.8375 13.7341 13.6911 13.7164C13.0712 13.6415 12.0425 13.5646 11.3401 13.5406L10.5865 13.5149V12.0536V10.5922H12.4907H14.3949L14.3675 11.0521ZM18.8084 10.734C18.8084 11.174 18.6094 12.1359 18.3686 12.8603C18.1617 13.4826 17.6538 14.5217 17.5719 14.4903C17.2942 14.3838 15.3243 13.9187 15.151 13.9187C15.1426 13.9187 15.17 13.7646 15.2117 13.5762C15.3367 13.0122 15.4758 11.9947 15.5266 11.2718L15.5744 10.5922H17.1914H18.8084V10.734ZM9.4119 16.6972C9.4119 17.795 9.40525 18.6931 9.3971 18.6931C9.36085 18.6931 9.06173 18.5626 8.88335 18.4689C8.16973 18.0942 7.41085 17.2023 6.88386 16.119C6.68105 15.7022 6.34631 14.8946 6.36815 14.8748C6.38002 14.8641 7.86051 14.744 8.17862 14.728C8.30782 14.7215 8.63818 14.7128 8.91272 14.7088L9.4119 14.7014V16.6972ZM12.6811 14.8007C13.0256 14.8314 13.3807 14.8664 13.4702 14.8786L13.633 14.9007L13.4832 15.2848C12.8837 16.8224 12.0078 18.0001 11.115 18.4689C10.9366 18.5626 10.6375 18.6931 10.6013 18.6931C10.5931 18.6931 10.5865 17.7926 10.5865 16.692V14.691L11.3206 14.7179C11.7243 14.7328 12.3366 14.77 12.6811 14.8007ZM5.24551 15.2595C5.57227 16.2447 6.06308 17.1789 6.78489 18.1893C6.83903 18.2651 6.83704 18.2651 6.64006 18.1875C5.72634 17.8275 4.68074 17.1462 3.89316 16.3977C3.53441 16.0567 3.03992 15.4967 3.07371 15.4696C3.13612 15.4195 5.0992 15.0145 5.15115 15.041C5.16564 15.0485 5.20812 15.1468 5.24551 15.2595ZM15.3238 15.1523C15.791 15.2399 16.8251 15.4878 16.8614 15.5209C16.9039 15.5596 16.4599 16.0691 16.0495 16.4525C15.2835 17.1683 14.2436 17.8387 13.3583 18.1875C13.1613 18.2651 13.1593 18.2651 13.2135 18.1893C13.9354 17.1788 14.4261 16.2448 14.753 15.2591C14.8115 15.0829 14.8332 15.0562 14.9061 15.0718C14.9528 15.0817 15.1408 15.118 15.3238 15.1523Z" fill="url(#paint0_linear_26_2281)"/>
<defs>
<linearGradient id="paint0_linear_26_2281" x1="1.57639" y1="-2.46206" x2="24.4684" y2="2.21896" gradientUnits="userSpaceOnUse">
<stop stop-color="#1693D1"/>
<stop offset="1" stop-color="#F6F626"/>
</linearGradient>
</defs>
</svg>
