<svg width="81" height="129" viewBox="0 0 81 129" fill="none" xmlns="http://www.w3.org/2000/svg">
<path fill-rule="evenodd" clip-rule="evenodd" d="M40.3823 0.412404C39.2756 1.78324 35.4012 15.0673 32.9008 26.0639C28.7329 44.3965 27.515 55.8273 27.8257 73.7029C28.1413 91.8642 30.4835 105.688 35.4902 118.937C36.5933 121.856 40.0075 129 40.2993 129C41.8295 129 46.2231 117.995 49.0586 107.06C51.9709 95.8282 53.212 87.7312 53.4449 78.4393L53.6246 71.2634L52.6717 71.2654C51.0018 71.2684 49.2475 71.9302 48.7 72.7636C48.3062 73.3627 48.0932 74.9553 47.8748 78.9335C47.3775 87.9869 46.4368 93.8615 43.2926 107.555C42.305 111.856 41.1751 114.838 40.4515 115.052C39.6759 115.281 36.9708 105.362 35.5282 96.9974C33.5262 85.3881 32.6791 72.3769 33.2876 62.5772C33.8924 52.8346 35.7082 38.6033 37.5253 29.3632C38.5788 24.0062 40.2344 18.6047 40.6848 19.0537C41.5695 19.9359 44.1525 31.3467 45.4085 39.9207C46.4488 47.0223 46.8081 48.41 47.7709 49.0388C48.3674 49.4288 48.779 49.4571 49.7885 49.1787C52.0338 48.5591 52.0076 48.6182 51.7892 44.6535C51.3624 36.9128 47.3477 19.5519 42.7411 5.52621C41.7429 2.48663 40.8786 0 40.8207 0C40.7628 0 40.5656 0.185747 40.3823 0.412404ZM0.256348 25.0976C-0.00735108 25.5892 -0.0430845 30.8115 0.129627 43.7383L0.369173 61.6957L1.22876 61.6811C2.83313 61.6544 4.98044 61.1117 5.26697 60.6604C5.42413 60.4132 5.55482 55.7943 5.5578 50.3958C5.56342 39.3981 5.5224 39.5542 7.77063 41.9867C10.7554 45.2153 13.6931 50.4608 15.455 55.7075C19.7145 68.3924 16.9157 79.7979 7.7607 87.0621L5.56276 88.8061V91.7183V94.6309L8.12697 95.8922C11.3089 97.4574 14.9626 100.92 16.2639 103.604C17.1295 105.389 18.2286 109.991 17.8739 110.345C17.7753 110.444 14.965 110.524 11.6285 110.524H5.56276V107.885V105.246H4.63038C4.11721 105.246 2.94926 105.467 2.03442 105.738L0.371159 106.231L0.147494 110.9C0.0247428 113.468 -0.0331586 115.612 0.019449 115.664C0.273884 115.918 18.3368 116.196 20.8653 115.985L23.7603 115.744V112.625C23.7603 109.122 23.0791 105.337 21.9498 102.566C20.5179 99.0512 18.4281 96.4966 13.7216 92.5072C13.0555 91.9427 12.5109 91.3168 12.5109 91.1162C12.5109 90.9153 13.6259 89.5049 14.9888 87.9813C18.1284 84.4726 19.5067 82.1829 20.7584 78.3993C22.0405 74.5227 22.3965 72.8537 22.7668 68.9817C23.2958 63.4522 22.3383 57.3892 20.0302 51.6577C18.0771 46.8069 16.5207 44.4073 9.20658 34.9719C7.25778 32.4575 6.31052 30.1599 5.97237 27.1276C5.69511 24.6406 5.51512 24.5077 2.34841 24.4473C0.92238 24.4199 0.559421 24.5328 0.256348 25.0976ZM75.7922 24.8267C75.6129 25.0537 75.3769 26.03 75.2678 26.9966C74.9859 29.4968 73.9006 31.6066 70.5725 36.1266C63.482 45.7557 60.8258 51.0837 59.1344 59.0705C58.0529 64.1777 58.1164 70.5689 59.2929 75.0546C61.3711 82.9757 66.4191 90.039 72.1434 93.0361C75.6456 94.8694 75.3753 94.0516 75.3753 102.822V110.524H66.7728H58.1703V113.381V116.239L66.3592 116.021C70.8633 115.902 75.9996 115.804 77.7741 115.804L81 115.803V90.1944V64.5858L79.0975 64.7435C78.0513 64.8303 76.7854 65.0671 76.2852 65.27L75.3753 65.6382V76.6989C75.3753 89.0192 75.5215 88.3525 73.0917 87.1162C69.9766 85.5316 66.6348 80.0945 65.0722 74.0678C64.4227 71.5623 64.3022 70.2737 64.3016 65.8197C64.3009 61.3542 64.4174 60.1087 65.0579 57.7366C66.519 52.3255 69.7397 46.5271 75.6866 38.601C78.7425 34.5281 80.2301 31.5067 80.6943 28.4305C80.8948 27.1009 80.9682 25.6532 80.8577 25.2137C80.6691 24.4651 80.5126 24.4143 78.3872 24.4143C76.9664 24.4143 75.9963 24.5684 75.7922 24.8267Z" fill="white"/>
</svg>
