<svg width="10" height="21" viewBox="0 0 10 21" fill="none" xmlns="http://www.w3.org/2000/svg">
<path d="M9.7758 18.7132L1.80591 10.1364L9.7758 1.55962C9.91848 1.40638 9.99836 1.20067 9.99836 0.986466C9.99836 0.772257 9.91848 0.566547 9.7758 0.413308C9.7065 0.339111 9.62378 0.280165 9.53249 0.239924C9.4412 0.199683 9.34317 0.178955 9.24415 0.178955C9.14512 0.178955 9.0471 0.199683 8.95581 0.239924C8.86452 0.280165 8.7818 0.339111 8.71249 0.413308L0.232212 9.53749C0.0833273 9.69773 0 9.91263 0 10.1364C0 10.3601 0.0833273 10.5751 0.232212 10.7353L8.71086 19.8595C8.78021 19.9342 8.86313 19.9936 8.95473 20.0341C9.04632 20.0747 9.14473 20.0956 9.24415 20.0956C9.34356 20.0956 9.44198 20.0747 9.53357 20.0341C9.62516 19.9936 9.70808 19.9342 9.77744 19.8595C9.92012 19.7062 10 19.5005 10 19.2863C10 19.0721 9.92012 18.8664 9.77744 18.7132H9.7758Z" fill="url(#paint0_linear_26_2247)"/>
<defs>
<linearGradient id="paint0_linear_26_2247" x1="11.231" y1="1.74877" x2="2.93472" y2="22.1198" gradientUnits="userSpaceOnUse">
<stop stop-color="#1693D1"/>
<stop offset="1" stop-color="#F6F626"/>
</linearGradient>
</defs>
</svg>
