<svg width="25" height="25" viewBox="0 0 25 25" fill="none" xmlns="http://www.w3.org/2000/svg">
<path fill-rule="evenodd" clip-rule="evenodd" d="M8.44981 0.146689C8.08299 0.324258 7.84394 0.556792 7.60291 0.97032C7.42927 1.26832 7.03423 2.36752 6.94651 2.7968C6.88301 3.10759 6.53381 3.86923 6.43394 3.91484C6.38456 3.93733 5.71661 3.97392 4.94956 3.99606C3.9019 4.02631 3.49921 4.05822 3.33087 4.12443C2.69924 4.37277 2.41555 4.62831 2.18372 5.15782C2.04764 5.46855 2.039 5.53408 2.06323 6.07106C2.08647 6.5871 2.12328 6.75382 2.40434 7.61575C2.5776 8.14715 2.73238 8.73213 2.74835 8.91558L2.77733 9.24926L2.53718 9.48196C2.40511 9.60999 2.03862 9.89834 1.72278 10.1228C0.962786 10.6628 0.346305 11.2789 0.151276 11.6933C0.0220407 11.968 0 12.0856 0 12.5C0 12.9144 0.0220407 13.032 0.151276 13.3067C0.346305 13.7211 0.962786 14.3372 1.72278 14.8772C2.03862 15.1017 2.40522 15.3901 2.53746 15.5183L2.77794 15.7513L2.74485 16.1091C2.72653 16.307 2.57328 16.9005 2.40182 17.4372C2.16266 18.1861 2.08565 18.5124 2.06438 18.8671C2.01691 19.6595 2.27035 20.2557 2.80517 20.6098C3.27404 20.9201 3.4898 20.9592 4.97691 21.0026C5.72892 21.0247 6.38838 21.063 6.44242 21.0878C6.59413 21.1575 6.77992 21.5946 7.02756 22.4644C7.28581 23.3714 7.58667 24.0646 7.87232 24.4111C8.13681 24.7318 8.65534 25 9.01122 25C9.7163 25 10.6022 24.5787 11.3452 23.8901C11.6727 23.5865 12.2136 23.2412 12.4338 23.1953C12.6521 23.1497 12.9945 23.3493 13.8199 24.003C14.1601 24.2725 14.6458 24.6006 14.8992 24.7322C15.2981 24.9393 15.417 24.9741 15.7845 24.9916C16.1522 25.0091 16.2514 24.9915 16.5269 24.8601C17.2075 24.5355 17.5364 23.9947 17.9689 22.4886C18.0636 22.159 18.2154 21.7174 18.3063 21.5072C18.4687 21.1321 18.4765 21.1241 18.7411 21.0649C18.8893 21.0317 19.4832 21.0042 20.0607 21.0037C21.7606 21.0023 22.3637 20.7626 22.7867 19.9201C22.9009 19.6927 22.9154 19.588 22.9137 19.0068C22.9118 18.3576 22.9084 18.34 22.5932 17.3842C22.418 16.8529 22.2623 16.2749 22.2473 16.1C22.2204 15.7864 22.2234 15.7785 22.4585 15.5342C22.5896 15.3979 22.943 15.1106 23.2438 14.8957C24.1825 14.225 24.6532 13.7489 24.8786 13.242C25.0433 12.8717 25.0398 12.1215 24.8717 11.7396C24.6939 11.3358 24.1091 10.739 23.3524 10.1889C22.986 9.92255 22.5743 9.59515 22.4377 9.4613L22.1891 9.21804L22.2436 8.84703C22.2736 8.64298 22.4343 8.05234 22.6009 7.53453C22.8456 6.77329 22.9087 6.49892 22.9304 6.10183C22.9734 5.31553 22.7268 4.7464 22.1888 4.39024C21.7199 4.07985 21.5041 4.04081 20.017 3.99737C19.265 3.97534 18.6067 3.9375 18.554 3.91324C18.4133 3.84829 18.1677 3.26433 17.9408 2.45434C17.7093 1.62854 17.4023 0.929338 17.1216 0.588927C16.8256 0.229966 16.3438 0 15.8877 0C15.2367 0 14.7901 0.218493 13.7275 1.05656C13.0875 1.5613 12.6585 1.82648 12.4818 1.82648C12.3261 1.82648 11.8269 1.51832 11.3211 1.10987C10.3 0.285388 9.73243 -0.000399639 9.1177 0.00057068C8.84009 0.000970224 8.67733 0.0365867 8.44981 0.146689ZM16.4946 10.5317C16.759 10.7087 16.8919 11.0116 16.8595 11.3632C16.8456 11.514 16.7928 11.7034 16.742 11.7842C16.6107 11.9933 11.8583 15.703 11.594 15.8027C11.4484 15.8576 11.3012 15.8715 11.1564 15.8441C10.963 15.8074 10.7822 15.6399 9.56103 14.3654C8.3605 13.1125 8.17892 12.8999 8.14567 12.7086C8.03541 12.0743 8.59026 11.4956 9.19656 11.6126C9.37584 11.6471 9.55354 11.8052 10.3998 12.6826C11.1034 13.4123 11.414 13.6985 11.4663 13.6653C11.5067 13.6396 12.4668 12.8937 13.5997 12.0079C14.7326 11.1221 15.717 10.386 15.7873 10.3721C16.0035 10.3295 16.2886 10.3938 16.4946 10.5317Z" fill="#1ED300"/>
</svg>
