<svg width="20" height="20" viewBox="0 0 20 20" fill="none" xmlns="http://www.w3.org/2000/svg">
<path fill-rule="evenodd" clip-rule="evenodd" d="M6.75985 0.117352C6.4664 0.259406 6.27515 0.445434 6.08233 0.776256C5.94342 1.01466 5.62739 1.89402 5.55721 2.23744C5.50641 2.48607 5.22705 3.09539 5.14715 3.13187C5.10764 3.14986 4.57329 3.17913 3.95965 3.19685C3.12152 3.22105 2.79936 3.24658 2.66469 3.29954C2.15939 3.49822 1.93244 3.70265 1.74697 4.12626C1.63811 4.37484 1.6312 4.42726 1.65058 4.85685C1.66918 5.26968 1.69862 5.40306 1.92347 6.0926C2.06208 6.51772 2.1859 6.98571 2.19868 7.13247L2.22187 7.39941L2.02975 7.58557C1.92408 7.68799 1.6309 7.91868 1.37822 8.09822C0.770229 8.53023 0.277044 9.02315 0.121021 9.35466C0.0176325 9.57438 0 9.66845 0 10C0 10.3316 0.0176325 10.4256 0.121021 10.6453C0.277044 10.9768 0.770229 11.4698 1.37822 11.9018C1.6309 12.0813 1.92417 12.3121 2.02997 12.4146L2.22235 12.6011L2.19588 12.8873C2.18122 13.0456 2.05863 13.5204 1.92146 13.9498C1.73013 14.5489 1.66852 14.8099 1.6515 15.0937C1.61353 15.7276 1.81628 16.2046 2.24414 16.4878C2.61923 16.7361 2.79184 16.7674 3.98153 16.8021C4.58313 16.8197 5.11071 16.8504 5.15394 16.8702C5.27531 16.926 5.42393 17.2757 5.62205 17.9715C5.82865 18.6971 6.06934 19.2517 6.29786 19.5289C6.50945 19.7855 6.92427 20 7.20897 20C7.77304 20 8.48175 19.663 9.07613 19.1121C9.33813 18.8692 9.77089 18.593 9.94704 18.5562C10.1217 18.5198 10.3956 18.6794 11.056 19.2024C11.3281 19.418 11.7167 19.6805 11.9194 19.7858C12.2385 19.9515 12.3336 19.9793 12.6276 19.9933C12.9218 20.0073 13.0011 19.9932 13.2215 19.8881C13.766 19.6284 14.0291 19.1958 14.3751 17.9909C14.4508 17.7272 14.5723 17.3739 14.6451 17.2058C14.7749 16.9057 14.7812 16.8993 14.9929 16.8519C15.1115 16.8254 15.5865 16.8033 16.0486 16.803C17.4085 16.8019 17.891 16.6101 18.2294 15.9361C18.3207 15.7542 18.3324 15.6704 18.331 15.2055C18.3295 14.6861 18.3267 14.672 18.0746 13.9074C17.9344 13.4823 17.8099 13.02 17.7979 12.88C17.7763 12.6291 17.7787 12.6228 17.9668 12.4274C18.0717 12.3183 18.3544 12.0884 18.595 11.9165C19.346 11.38 19.7226 10.9991 19.9029 10.5936C20.0347 10.2974 20.0319 9.69722 19.8974 9.39169C19.7551 9.06868 19.2873 8.59119 18.6819 8.1511C18.3888 7.93804 18.0595 7.67612 17.9501 7.56904L17.7513 7.37443L17.7949 7.07763C17.8189 6.91438 17.9475 6.44187 18.0807 6.02763C18.2765 5.41863 18.327 5.19913 18.3443 4.88146C18.3787 4.25242 18.1814 3.79712 17.751 3.51219C17.3759 3.26388 17.2033 3.23265 16.0136 3.1979C15.412 3.18027 14.8854 3.15 14.8432 3.13059C14.7306 3.07863 14.5342 2.61146 14.3526 1.96347C14.1675 1.30283 13.9219 0.74347 13.6973 0.471142C13.4605 0.183973 13.0751 0 12.7101 0C12.1894 0 11.8321 0.174795 10.982 0.845251C10.47 1.24904 10.1268 1.46119 9.98545 1.46119C9.86085 1.46119 9.46151 1.21466 9.05688 0.8879C8.24001 0.228311 7.78594 -0.000319711 7.29416 0.000456544C7.07207 0.000776179 6.94186 0.0292694 6.75985 0.117352ZM13.1957 8.42539C13.4072 8.56699 13.5135 8.80927 13.4876 9.09059C13.4765 9.21119 13.4342 9.36274 13.3936 9.4274C13.2886 9.59466 9.48663 12.5624 9.27517 12.6421C9.1587 12.6861 9.041 12.6972 8.92514 12.6753C8.77039 12.6459 8.62578 12.5119 7.64882 11.4923C6.6884 10.49 6.54314 10.3199 6.51654 10.1668C6.42833 9.65941 6.87221 9.19648 7.35725 9.29004C7.50067 9.31772 7.64283 9.44416 8.31982 10.1461C8.88275 10.7299 9.13122 10.9588 9.173 10.9322C9.20538 10.9116 9.97342 10.315 10.8797 9.60635C11.7861 8.89772 12.5736 8.30881 12.6298 8.29772C12.8028 8.26361 13.0308 8.31507 13.1957 8.42539Z" fill="white"/>
</svg>
