<svg width="25" height="25" viewBox="0 0 25 25" fill="none" xmlns="http://www.w3.org/2000/svg">
<circle cx="12.5" cy="12.5" r="12.5" fill="#D9D9D9"/>
<path fill-rule="evenodd" clip-rule="evenodd" d="M12.6223 4.04243C12.4533 4.10392 12.2754 4.26186 12.1745 4.44004C12.1 4.57143 12.0991 4.59329 12.0991 6.28467C12.0991 8.15543 12.0984 8.14788 12.3031 8.37037C12.5183 8.60422 12.9056 8.68469 13.2231 8.56151C13.4159 8.48676 13.6301 8.25371 13.68 8.06446C13.7061 7.96591 13.719 7.37806 13.719 6.29075C13.719 4.54627 13.7166 4.51984 13.5381 4.28848C13.3509 4.04579 12.9265 3.93179 12.6223 4.04243ZM6.93393 6.2984C6.47422 6.44115 6.24403 6.93146 6.44109 7.34824C6.53326 7.54321 8.80755 9.73174 9.06853 9.87662C9.59286 10.1677 10.2677 9.80207 10.2692 9.22611C10.27 8.90069 10.2073 8.82584 8.87199 7.55953C8.19456 6.91713 7.58851 6.36667 7.52521 6.33632C7.36557 6.25974 7.11103 6.24343 6.93393 6.2984ZM4.47035 11.7986C3.95337 12.0275 3.83755 12.6831 4.24839 13.0549C4.48446 13.2686 4.44043 13.2644 6.42869 13.2636C8.11162 13.263 8.24183 13.2588 8.37183 13.2012C8.8745 12.9787 9.00203 12.3539 8.62261 11.9724C8.38204 11.7305 8.44262 11.7369 6.42109 11.7369C4.72984 11.7369 4.60046 11.741 4.47035 11.7986ZM18.2163 11.8231C17.6314 12.1011 17.6314 12.8987 18.2163 13.1768L18.4005 13.2644H19.3875C20.4766 13.2644 20.5286 13.2564 20.7511 13.0549C21.083 12.7545 21.083 12.2453 20.7511 11.9449C20.5286 11.7435 20.4766 11.7355 19.3875 11.7355H18.4005L18.2163 11.8231ZM16.2036 15.0304C15.7156 15.1124 15.4284 15.5734 15.5826 16.0274C15.639 16.1933 15.7328 16.2913 16.9192 17.4246C18.1729 18.622 18.1988 18.6444 18.3999 18.6995C18.8109 18.8121 19.2207 18.6345 19.3777 18.2758C19.447 18.1176 19.4471 17.8175 19.378 17.6588C19.3205 17.5269 16.9668 15.2456 16.7624 15.1236C16.6203 15.0389 16.3858 14.9997 16.2036 15.0304ZM9.06853 15.1232C8.80755 15.2681 6.53326 17.4566 6.44109 17.6516C6.34045 17.8644 6.34731 18.0959 6.46063 18.3128C6.65773 18.6902 7.14262 18.8464 7.53458 18.6589C7.59272 18.6311 8.19456 18.0827 8.87199 17.4403C10.2073 16.174 10.27 16.0991 10.2692 15.7737C10.2677 15.1978 9.59286 14.8321 9.06853 15.1232ZM12.7338 16.3917C12.5423 16.4346 12.4196 16.5029 12.2996 16.6333C12.0989 16.8514 12.0991 16.8488 12.0991 18.7152C12.0991 20.4188 12.0995 20.4275 12.1763 20.5645C12.525 21.1866 13.425 21.1304 13.6687 20.4713C13.7099 20.36 13.719 20.0409 13.719 18.7091C13.719 17.6218 13.7061 17.0339 13.68 16.9354C13.583 16.5677 13.1244 16.3042 12.7338 16.3917Z" fill="white"/>
</svg>
